<svg xmlns="http://www.w3.org/2000/svg" width="232.453" height="23.359" viewBox="0 0 232.453 23.359">
  <path id="Path_1" data-name="Path 1" d="M.969-6.641C1.047-2.2,4.766.391,10.391.391c5.953,0,9.5-2.875,9.5-7.406,0-3.547-2.187-5.5-7-6.422l-2.312-.437C8.125-14.344,7.094-15,7.094-16.187c0-1.328,1.234-2.266,3.313-2.266s3.609.969,3.7,2.594h5.328c-.062-4.3-3.406-7.078-9.078-7.078-5.187,0-8.953,2.8-8.953,7.141,0,3.438,2.328,5.641,6.828,6.484l2.313.438c2.672.516,3.641,1.156,3.641,2.406,0,1.375-1.453,2.375-3.687,2.375-2.2,0-3.937-.937-4.2-2.547ZM28.266,0V-22.547H22.531V0Zm2.094-7.344c0,4.781,3.219,7.766,8.281,7.766,5.172,0,8.266-2.828,8.266-7.891V-22.547H41.188V-7.5c0,2-.922,3.078-2.609,3.078a2.639,2.639,0,0,1-2.7-2.922ZM61.344,0c4.828,0,7.875-2.547,7.875-6.5a5.489,5.489,0,0,0-5.453-5.406v-.125a4.971,4.971,0,0,0,4.406-4.891c0-3.484-2.672-5.625-7.109-5.625H50.578V0ZM56.313-18.484h3.234c1.922,0,3.047.938,3.047,2.516,0,1.625-1.25,2.609-3.328,2.609H56.313Zm0,14.422V-9.875h3.375c2.359,0,3.7,1.031,3.7,2.875,0,1.906-1.312,2.938-3.672,2.938Zm30.781-.562H77.375V-9.219h9.141v-4.219H77.375v-4.484h9.719v-4.625H71.641V0H87.094Zm8.969-3.266h2.922L102.859,0H109.3l-4.516-8.734a6.758,6.758,0,0,0,3.859-6.375c0-4.656-3.031-7.437-8.656-7.437H90.328V0h5.734Zm0-10.328h3.344A3.111,3.111,0,0,1,102.781-15a3.028,3.028,0,0,1-3.359,3.188H96.063ZM110.8-6.016c.234,3.813,3.531,6.375,8.344,6.375,4.891,0,8.109-2.578,8.109-6.578,0-3.125-1.859-4.891-6.5-5.937l-2.453-.562c-3.344-.75-4.734-2.047-4.734-4.094,0-2.562,2.422-4.156,5.469-4.156,3.2,0,5.438,1.719,5.656,4.3h2.141c-.125-3.625-3.359-6.234-7.75-6.234-4.422,0-7.7,2.547-7.7,6.188,0,3.109,1.875,5.031,6.359,6.031l2.453.547c3.469.8,4.875,2.078,4.875,4.2,0,2.563-2.422,4.359-5.812,4.359-3.531,0-6.047-1.734-6.312-4.437Zm28.891-16.891c-6.281,0-10.234,4.5-10.234,11.641S133.406.359,139.688.359c6.3,0,10.25-4.484,10.25-11.625S145.969-22.906,139.688-22.906Zm0,1.984c4.938,0,8.063,3.734,8.063,9.656,0,5.906-3.125,9.641-8.062,9.641s-8.047-3.734-8.047-9.641C131.641-17.187,134.75-20.922,139.688-20.922Zm15.688-1.625H153.25V-7.875c0,4.859,3.3,8.234,8.719,8.234S170.7-3.016,170.7-7.875V-22.547h-2.141V-8c0,3.781-2.453,6.375-6.594,6.375-4.125,0-6.594-2.594-6.594-6.375ZM177.016,0V-18.844h.109L190.391,0h2.063V-22.547h-2.109V-3.719h-.109L177.016-22.547h-2.109V0Zm19.656-22.547V0h7.313c6.766,0,10.688-4.141,10.688-11.281,0-7.125-3.937-11.266-10.687-11.266Zm2.141,1.938h5.047c5.547,0,8.641,3.344,8.641,9.344,0,5.984-3.094,9.328-8.641,9.328h-5.047ZM217,0h16.422V-1.937H219.734v-.094l13.5-18.953v-1.562h-15.8v1.938h13.094v.094L217-1.547Z" transform="translate(-0.969 22.938)" fill="#fff"/>
</svg>
